<?xml version="1.0" encoding="utf-8"?>
<!-- Generator: Adobe Illustrator 23.0.1, SVG Export Plug-In . SVG Version: 6.00 Build 0)  -->
<svg version="1.1" id="Layer_1" xmlns="http://www.w3.org/2000/svg" xmlns:xlink="http://www.w3.org/1999/xlink" x="0px" y="0px"
	 viewBox="0 0 36.93 38.14" style="enable-background:new 0 0 36.93 38.14;" xml:space="preserve">
<style type="text/css">
	.st0{fill:#FFFFFF;}
</style>
<path class="st0" d="M18.62,36.32c-9.4,0-17.05-7.65-17.05-17.05c0-9.4,7.65-17.05,17.05-17.05c9.4,0,17.05,7.65,17.05,17.05
	C35.67,28.68,28.02,36.32,18.62,36.32z M18.62,3.23c-8.85,0-16.05,7.2-16.05,16.05c0,8.85,7.2,16.05,16.05,16.05
	s16.05-7.2,16.05-16.05C34.67,10.43,27.47,3.23,18.62,3.23z"/>
<polygon class="st0" points="16.61,26.31 15.95,25.56 22.68,19.67 15.91,12.99 16.61,12.27 24.14,19.71 "/>
</svg>
