<?xml version="1.0" encoding="utf-8"?>
<!-- Generator: Adobe Illustrator 22.1.0, SVG Export Plug-In . SVG Version: 6.00 Build 0)  -->
<svg version="1.1" id="Layer_1" xmlns="http://www.w3.org/2000/svg" xmlns:xlink="http://www.w3.org/1999/xlink" x="0px" y="0px"
	 viewBox="0 0 336.2 36.9" style="enable-background:new 0 0 336.2 36.9;" xml:space="preserve">
<style type="text/css">
	.st0{clip-path:url(#SVGID_2_);fill:#FFFFFF;}
	.st1{clip-path:url(#SVGID_4_);fill:#FFFFFF;}
</style>
<g>
	<defs>
		<rect id="SVGID_1_" x="1.6" y="10.8" width="285.1" height="15.4"/>
	</defs>
	<clipPath id="SVGID_2_">
		<use xlink:href="#SVGID_1_"  style="overflow:visible;"/>
	</clipPath>
	<path class="st0" d="M8.8,20.4c0,1.9,0,3.4,0.1,4.3c0.1,0.6,0.2,1,0.8,1.1c0.3,0,0.7,0.1,0.9,0.1c0.1,0,0.2,0.1,0.2,0.1
		c0,0.1-0.1,0.2-0.3,0.2C9.4,26.1,8.1,26,8,26c-0.1,0-1.3,0.1-1.9,0.1c-0.2,0-0.3,0-0.3-0.2c0-0.1,0-0.1,0.2-0.1
		c0.2,0,0.4,0,0.6-0.1c0.4-0.1,0.5-0.5,0.6-1.1c0.1-0.8,0.1-2.4,0.1-4.3v-8.3l-2.9,0c-1.2,0-1.7,0.2-2,0.6c-0.2,0.3-0.3,0.5-0.3,0.6
		c-0.1,0.2-0.1,0.2-0.2,0.2c-0.1,0-0.1-0.1-0.1-0.2c0-0.2,0.4-1.9,0.4-2c0-0.1,0.1-0.4,0.2-0.4c0.1,0,0.3,0.2,0.9,0.2
		c0.6,0.1,1.3,0.1,1.6,0.1h7.4c0.6,0,1.1,0,1.4-0.1c0.3,0,0.5-0.1,0.6-0.1c0.1,0,0.1,0.1,0.1,0.2c0,0.6-0.1,1.9-0.1,2.2
		c0,0.2-0.1,0.3-0.1,0.3c-0.1,0-0.1-0.1-0.2-0.3l0-0.2c-0.1-0.6-0.5-1-2.4-1.1l-2.5,0V20.4z"/>
	<path class="st0" d="M30.1,20.4c0,1.9,0,3.4,0.1,4.3c0.1,0.6,0.2,1,0.8,1.1c0.3,0,0.7,0.1,0.9,0.1c0.1,0,0.2,0.1,0.2,0.1
		c0,0.1-0.1,0.2-0.3,0.2c-1.1,0-2.3-0.1-2.4-0.1c-0.1,0-1.3,0.1-1.9,0.1c-0.2,0-0.3,0-0.3-0.2c0-0.1,0-0.1,0.2-0.1
		c0.2,0,0.4,0,0.6-0.1c0.4-0.1,0.5-0.5,0.6-1.1c0.1-0.8,0.1-2.4,0.1-4.3v-2.1c0-0.1-0.1-0.1-0.1-0.1H20c-0.1,0-0.1,0-0.1,0.1v2.1
		c0,1.9,0,3.4,0.1,4.3c0.1,0.6,0.2,1,0.8,1.1c0.3,0,0.7,0.1,0.9,0.1c0.1,0,0.2,0.1,0.2,0.1c0,0.1-0.1,0.2-0.3,0.2
		c-1.1,0-2.3-0.1-2.4-0.1c-0.1,0-1.3,0.1-1.9,0.1c-0.2,0-0.3,0-0.3-0.2c0-0.1,0-0.1,0.2-0.1c0.2,0,0.4,0,0.6-0.1
		c0.4-0.1,0.5-0.5,0.6-1.1c0.1-0.8,0.1-2.4,0.1-4.3v-3.5c0-3.1,0-3.6,0-4.3c0-0.7-0.2-1-0.8-1.1c-0.2,0-0.5-0.1-0.7-0.1
		c-0.1,0-0.2,0-0.2-0.1c0-0.1,0.1-0.2,0.3-0.2c0.9,0,2.1,0.1,2.2,0.1c0.1,0,1.3-0.1,1.9-0.1c0.2,0,0.3,0,0.3,0.2
		c0,0.1-0.1,0.1-0.2,0.1c-0.1,0-0.3,0-0.5,0.1c-0.5,0.1-0.7,0.4-0.7,1.1c0,0.6,0,1.2,0,4.3v0.4c0,0.1,0.1,0.1,0.1,0.1h8.3
		c0.1,0,0.1,0,0.1-0.1v-0.4c0-3.1,0-3.6,0-4.3c0-0.7-0.2-1-0.8-1.1c-0.2,0-0.5-0.1-0.7-0.1c-0.1,0-0.2,0-0.2-0.1
		c0-0.1,0.1-0.2,0.3-0.2c0.9,0,2.1,0.1,2.2,0.1c0.1,0,1.3-0.1,1.9-0.1c0.2,0,0.3,0,0.3,0.2c0,0.1-0.1,0.1-0.2,0.1
		c-0.1,0-0.3,0-0.5,0.1c-0.5,0.1-0.7,0.4-0.7,1.1c0,0.6,0,1.2,0,4.3V20.4z"/>
	<path class="st0" d="M37.2,16.9c0-3.1,0-3.6,0-4.3c0-0.7-0.2-1-0.8-1.1c-0.2,0-0.5-0.1-0.7-0.1c-0.1,0-0.2,0-0.2-0.1
		c0-0.1,0.1-0.2,0.3-0.2c0.5,0,1,0,1.4,0l0.8,0c0.1,0,4.1,0,4.5,0c0.4,0,0.7-0.1,0.8-0.1c0.1,0,0.2-0.1,0.3-0.1
		c0.1,0,0.1,0.1,0.1,0.2c0,0.1-0.1,0.4-0.2,0.9c0,0.2-0.1,1.1-0.1,1.3c0,0.1-0.1,0.2-0.1,0.2c-0.1,0-0.2-0.1-0.2-0.3
		c0-0.1,0-0.5-0.1-0.7c-0.1-0.3-0.3-0.6-1.4-0.7c-0.3,0-2.5-0.1-2.7-0.1c-0.1,0-0.1,0.1-0.1,0.2v5.4c0,0.1,0,0.2,0.1,0.2
		c0.3,0,2.7,0,3.1,0c0.5,0,0.7-0.1,0.9-0.3c0.1-0.2,0.2-0.3,0.3-0.3c0.1,0,0.1,0,0.1,0.2s-0.1,0.5-0.2,1.1c0,0.4-0.1,1.1-0.1,1.3
		c0,0.2,0,0.4-0.1,0.4c-0.1,0-0.1-0.1-0.1-0.2c0-0.2,0-0.4-0.1-0.6c-0.1-0.3-0.3-0.6-1-0.7c-0.5-0.1-2.5-0.1-2.8-0.1
		c-0.1,0-0.1,0.1-0.1,0.1v1.7c0,0.7,0,3,0,3.4c0.1,1.4,0.4,1.6,2.3,1.6c0.5,0,1.4,0,1.9-0.2c0.5-0.2,0.7-0.6,0.9-1.4
		c0-0.2,0.1-0.3,0.2-0.3c0.1,0,0.1,0.2,0.1,0.3c0,0.2-0.2,1.5-0.3,1.9c-0.1,0.5-0.3,0.5-1.1,0.5c-1.5,0-2.6,0-3.3-0.1
		c-0.8,0-1.2-0.1-1.5-0.1c0,0-0.4,0-0.8,0c-0.4,0-0.8,0-1.1,0c-0.2,0-0.3,0-0.3-0.2c0-0.1,0-0.1,0.2-0.1c0.2,0,0.4,0,0.6-0.1
		c0.4-0.1,0.5-0.5,0.6-1.1c0.1-0.8,0.1-2.4,0.1-4.3V16.9z"/>
	<path class="st0" d="M58.3,18.9c0,2.1,0,3.9,0,4.3c0,0.5,0.1,1.3,0.2,1.5c0.3,0.4,1,0.8,3.3,0.8c1.8,0,3.5-0.7,4.7-1.8
		c1-1,1.6-2.9,1.6-4.7c0-2.5-1.1-4.1-1.9-5c-1.9-1.9-4.1-2.2-6.4-2.2c-0.4,0-1.1,0.1-1.3,0.1c-0.2,0.1-0.2,0.2-0.2,0.4
		c0,0.7,0,2.7,0,4.2V18.9z M56.6,16.8c0-3.1,0-3.6,0-4.3c0-0.7-0.2-1-0.8-1.1c-0.2,0-0.5-0.1-0.7-0.1c-0.1,0-0.2,0-0.2-0.1
		c0-0.1,0.1-0.2,0.3-0.2c0.9,0,2.1,0.1,2.2,0.1c0.2,0,1.5-0.1,2.7-0.1c1.9,0,5.6-0.2,7.9,2.2c1,1,1.9,2.7,1.9,5c0,2.5-1,4.4-2.1,5.6
		c-0.8,0.9-2.6,2.3-6,2.3c-0.8,0-1.9-0.1-2.7-0.1c-0.9-0.1-1.5-0.1-1.6-0.1c0,0-0.4,0-0.8,0c-0.4,0-0.8,0-1.1,0
		c-0.2,0-0.3,0-0.3-0.2c0-0.1,0-0.1,0.2-0.1c0.2,0,0.4,0,0.6-0.1c0.4-0.1,0.5-0.5,0.6-1.1c0.1-0.8,0.1-2.4,0.1-4.3V16.8z"/>
	<path class="st0" d="M74.5,16.8c0-3.1,0-3.6,0-4.3c0-0.7-0.2-1-0.8-1.1c-0.2,0-0.5-0.1-0.7-0.1c-0.1,0-0.2,0-0.2-0.1
		c0-0.1,0.1-0.2,0.3-0.2c0.5,0,1,0,1.4,0l0.8,0c0.1,0,4.1,0,4.5,0c0.4,0,0.7-0.1,0.8-0.1c0.1,0,0.2-0.1,0.3-0.1
		c0.1,0,0.1,0.1,0.1,0.2c0,0.1-0.1,0.4-0.2,0.9c0,0.2-0.1,1.1-0.1,1.3c0,0.1-0.1,0.2-0.1,0.2c-0.1,0-0.2-0.1-0.2-0.3
		c0-0.1,0-0.5-0.1-0.7c-0.1-0.3-0.3-0.6-1.4-0.7c-0.3,0-2.5-0.1-2.7-0.1c-0.1,0-0.1,0.1-0.1,0.2v5.4c0,0.1,0,0.2,0.1,0.2
		c0.3,0,2.7,0,3.1,0c0.5,0,0.7-0.1,0.9-0.3c0.1-0.2,0.2-0.3,0.3-0.3c0.1,0,0.1,0,0.1,0.2s-0.1,0.5-0.2,1.1c0,0.4-0.1,1.1-0.1,1.3
		c0,0.2,0,0.4-0.1,0.4c-0.1,0-0.1-0.1-0.1-0.2c0-0.2,0-0.4-0.1-0.6c-0.1-0.3-0.3-0.6-1-0.7c-0.5-0.1-2.5-0.1-2.8-0.1
		c-0.1,0-0.1,0.1-0.1,0.1v1.7c0,0.7,0,3,0,3.4c0.1,1.4,0.4,1.6,2.3,1.6c0.5,0,1.4,0,1.9-0.2c0.5-0.2,0.7-0.6,0.9-1.4
		c0-0.2,0.1-0.3,0.2-0.3c0.1,0,0.1,0.2,0.1,0.3c0,0.2-0.2,1.5-0.3,1.9C81.1,26,80.9,26,80.2,26c-1.5,0-2.6,0-3.3-0.1
		c-0.8,0-1.2-0.1-1.5-0.1c0,0-0.4,0-0.8,0c-0.4,0-0.8,0-1.1,0c-0.2,0-0.3,0-0.3-0.2c0-0.1,0-0.1,0.2-0.1c0.2,0,0.4,0,0.6-0.1
		c0.4-0.1,0.5-0.5,0.6-1.1c0.1-0.8,0.1-2.4,0.1-4.3V16.8z"/>
	<path class="st0" d="M91.2,23.6c1.1-2.6,3.8-9.5,4.2-10.9c0.1-0.3,0.2-0.6,0.2-0.7c0-0.2-0.1-0.4-0.3-0.5c-0.2-0.1-0.5-0.1-0.7-0.1
		c-0.1,0-0.2,0-0.2-0.1c0-0.1,0.1-0.2,0.4-0.2c0.8,0,1.7,0.1,1.9,0.1c0.1,0,1-0.1,1.5-0.1c0.2,0,0.3,0,0.3,0.1
		c0,0.1-0.1,0.1-0.2,0.1c-0.1,0-0.6,0-0.9,0.2c-0.3,0.2-0.6,0.5-1.1,1.9c-0.2,0.6-1.2,2.9-2.2,5.3c-1.2,2.9-2.1,5-2.5,6
		c-0.6,1.2-0.6,1.5-0.8,1.5c-0.2,0-0.3-0.3-0.7-1.2L85.3,13c-0.4-1.1-0.7-1.3-1.4-1.5c-0.3-0.1-0.6-0.1-0.7-0.1
		c-0.1,0-0.2-0.1-0.2-0.1c0-0.1,0.2-0.1,0.5-0.1c0.9,0,2.1,0.1,2.3,0.1c0.2,0,1.1-0.1,1.8-0.1c0.4,0,0.5,0,0.5,0.1
		c0,0.1-0.1,0.1-0.2,0.1c-0.2,0-0.6,0-0.7,0.1c-0.2,0.1-0.3,0.3-0.3,0.4c0,0.3,0.2,0.9,0.5,1.6L91.2,23.6z"/>
	<path class="st0" d="M107.4,25.5c1.8,0,5.4-1,5.4-6.8c0-4.7-2.9-7.3-6-7.3c-3.3,0-5.7,2.2-5.7,6.5
		C101.1,22.6,103.9,25.5,107.4,25.5 M107,10.8c4.4,0,7.7,2.8,7.7,7.4c0,4.4-3.1,8.1-7.9,8.1c-5.4,0-7.6-4.2-7.6-7.7
		C99.2,15.3,101.6,10.8,107,10.8"/>
	<path class="st0" d="M119.4,23.3c0,1.6,0.2,2.1,0.8,2.3c0.4,0.1,0.8,0.1,1,0.1c0.1,0,0.2,0,0.2,0.1c0,0.1-0.1,0.2-0.4,0.2
		c-1.1,0-1.9-0.1-2.1-0.1c-0.2,0-1,0.1-1.9,0.1c-0.2,0-0.3,0-0.3-0.2c0-0.1,0.1-0.1,0.2-0.1c0.2,0,0.5,0,0.8-0.1
		c0.5-0.1,0.6-0.7,0.6-2.5l0-11.3c0-0.8,0.1-1,0.2-1c0.2,0,0.5,0.4,0.7,0.6c0.3,0.3,3.2,3.5,6.3,6.8c1.9,2.1,4.1,4.5,4.7,5.1
		l-0.2-10c0-1.3-0.2-1.7-0.8-1.9c-0.4-0.1-0.8-0.1-1-0.1c-0.1,0-0.2-0.1-0.2-0.1c0-0.1,0.2-0.1,0.4-0.1c0.9,0,1.8,0.1,2,0.1
		c0.2,0,0.9-0.1,1.7-0.1c0.2,0,0.4,0,0.4,0.1c0,0.1-0.1,0.1-0.2,0.1c-0.1,0-0.2,0-0.5,0.1c-0.7,0.1-0.7,0.6-0.7,1.8l0,11.5
		c0,1.3,0,1.4-0.2,1.4c-0.2,0-0.4-0.2-1.4-1.3c-0.2-0.2-3.1-3.1-5.1-5.3c-2.3-2.5-4.5-4.9-5.1-5.6L119.4,23.3z"/>
	<path class="st0" d="M136.3,25.7c-0.3-0.1-0.3-0.2-0.3-0.7c0-1,0.1-1.8,0.1-2.1c0-0.2,0.1-0.3,0.2-0.3c0.1,0,0.1,0.1,0.1,0.2
		c0,0.2,0,0.5,0.1,0.7c0.3,1.5,1.6,2,2.9,2c1.9,0,2.8-1.4,2.8-2.6c0-1.4-0.6-2.1-2.3-3.5l-0.9-0.7c-2.1-1.7-2.6-2.9-2.6-4.3
		c0-2.1,1.6-3.5,4.1-3.5c0.8,0,1.3,0.1,1.8,0.2c0.4,0.1,0.5,0.1,0.7,0.1c0.2,0,0.2,0,0.2,0.1c0,0.1-0.1,0.7-0.1,2.1
		c0,0.3,0,0.5-0.1,0.5c-0.1,0-0.1-0.1-0.2-0.3c0-0.2-0.1-0.8-0.3-1c-0.1-0.2-0.6-1-2.5-1c-1.4,0-2.4,0.8-2.4,2.3
		c0,1.1,0.5,1.8,2.4,3.3l0.6,0.4c2.3,1.8,2.9,3.1,2.9,4.6c0,0.8-0.3,2.3-1.7,3.3c-0.8,0.6-1.9,0.8-3,0.8
		C138,26.3,137.1,26.1,136.3,25.7"/>
	<path class="st0" d="M160.7,20.3c0,1.9,0,3.4,0.1,4.3c0.1,0.6,0.2,1,0.8,1.1c0.3,0,0.7,0.1,0.9,0.1c0.1,0,0.2,0.1,0.2,0.1
		c0,0.1-0.1,0.2-0.3,0.2c-1.1,0-2.3-0.1-2.4-0.1c-0.1,0-1.3,0.1-1.9,0.1c-0.2,0-0.3,0-0.3-0.2c0-0.1,0-0.1,0.2-0.1
		c0.2,0,0.4,0,0.6-0.1c0.4-0.1,0.5-0.5,0.6-1.1c0.1-0.8,0.1-2.4,0.1-4.3v-2.1c0-0.1-0.1-0.1-0.1-0.1h-8.3c-0.1,0-0.1,0-0.1,0.1v2.1
		c0,1.9,0,3.4,0.1,4.3c0.1,0.6,0.2,1,0.8,1.1c0.3,0,0.7,0.1,0.9,0.1c0.1,0,0.2,0.1,0.2,0.1c0,0.1-0.1,0.2-0.3,0.2
		c-1.1,0-2.3-0.1-2.4-0.1c-0.1,0-1.3,0.1-1.9,0.1c-0.2,0-0.3,0-0.3-0.2c0-0.1,0-0.1,0.2-0.1c0.2,0,0.4,0,0.6-0.1
		c0.4-0.1,0.5-0.5,0.6-1.1c0.1-0.8,0.1-2.4,0.1-4.3v-3.5c0-3.1,0-3.6,0-4.3c0-0.7-0.2-1-0.8-1.1c-0.2,0-0.5-0.1-0.7-0.1
		c-0.1,0-0.2,0-0.2-0.1c0-0.1,0.1-0.2,0.3-0.2c0.9,0,2.1,0.1,2.2,0.1c0.1,0,1.3-0.1,1.9-0.1c0.2,0,0.3,0,0.3,0.2
		c0,0.1-0.1,0.1-0.2,0.1c-0.1,0-0.3,0-0.5,0.1c-0.5,0.1-0.7,0.4-0.7,1.1c0,0.6,0,1.2,0,4.3v0.4c0,0.1,0.1,0.1,0.1,0.1h8.3
		c0.1,0,0.1,0,0.1-0.1v-0.4c0-3.1,0-3.6,0-4.3c0-0.7-0.2-1-0.8-1.1c-0.2,0-0.5-0.1-0.7-0.1c-0.1,0-0.2,0-0.2-0.1
		c0-0.1,0.1-0.2,0.3-0.2c0.9,0,2.1,0.1,2.2,0.1c0.1,0,1.3-0.1,1.9-0.1c0.2,0,0.3,0,0.3,0.2c0,0.1-0.1,0.1-0.2,0.1
		c-0.1,0-0.3,0-0.5,0.1c-0.5,0.1-0.7,0.4-0.7,1.1c0,0.6,0,1.2,0,4.3V20.3z"/>
	<path class="st0" d="M169.3,20.3c0,1.9,0,3.4,0.1,4.3c0.1,0.6,0.2,1,0.8,1.1c0.3,0,0.7,0.1,0.9,0.1c0.1,0,0.2,0.1,0.2,0.1
		c0,0.1-0.1,0.2-0.3,0.2c-1.1,0-2.3-0.1-2.4-0.1c-0.1,0-1.3,0.1-1.9,0.1c-0.2,0-0.3,0-0.3-0.2c0-0.1,0-0.1,0.2-0.1
		c0.2,0,0.4,0,0.6-0.1c0.4-0.1,0.5-0.5,0.6-1.1c0.1-0.8,0.1-2.4,0.1-4.3v-3.5c0-3.1,0-3.6,0-4.3c0-0.7-0.2-1-0.7-1.1
		c-0.2-0.1-0.5-0.1-0.6-0.1c-0.1,0-0.2,0-0.2-0.1c0-0.1,0.1-0.2,0.3-0.2c0.6,0,1.9,0.1,2,0.1c0.1,0,1.3-0.1,1.9-0.1
		c0.2,0,0.3,0,0.3,0.2c0,0.1-0.1,0.1-0.2,0.1c-0.1,0-0.3,0-0.5,0.1c-0.5,0.1-0.7,0.4-0.7,1.1c0,0.6,0,1.2,0,4.3V20.3z"/>
	<path class="st0" d="M177.9,18.5c0,0.1,0,0.2,0.1,0.2c0.3,0.2,1.2,0.3,2.1,0.3c0.5,0,1-0.1,1.5-0.4c0.7-0.5,1.2-1.5,1.2-3
		c0-2.5-1.3-3.9-3.4-3.9c-0.6,0-1.1,0.1-1.3,0.1c-0.1,0-0.2,0.1-0.2,0.2V18.5z M176.3,16.8c0-3.1,0-3.6,0-4.3c0-0.7-0.2-1-0.8-1.1
		c-0.2,0-0.5-0.1-0.7-0.1c-0.1,0-0.2,0-0.2-0.1c0-0.1,0.1-0.2,0.3-0.2c0.9,0,2.1,0.1,2.2,0.1c0.2,0,1.7-0.1,2.3-0.1
		c1.2,0,2.6,0.1,3.6,0.9c0.5,0.4,1.4,1.3,1.4,2.7c0,1.5-0.6,2.9-2.4,4.5c1.6,2.1,3,3.8,4.1,5c1.1,1.1,1.9,1.3,2.4,1.4
		c0.4,0.1,0.6,0.1,0.8,0.1c0.1,0,0.2,0.1,0.2,0.1c0,0.1-0.1,0.2-0.5,0.2h-1.4c-1.1,0-1.6-0.1-2.1-0.4c-0.8-0.5-1.5-1.4-2.7-2.9
		c-0.8-1.1-1.8-2.4-2.1-2.9c-0.1-0.1-0.1-0.1-0.3-0.1l-2.4,0c-0.1,0-0.1,0.1-0.1,0.2v0.5c0,1.9,0,3.4,0.1,4.3c0.1,0.6,0.2,1,0.8,1.1
		c0.3,0,0.7,0.1,0.9,0.1c0.1,0,0.2,0.1,0.2,0.1c0,0.1-0.1,0.2-0.3,0.2c-1.1,0-2.3-0.1-2.4-0.1c0,0-1.3,0.1-1.9,0.1
		c-0.2,0-0.3,0-0.3-0.2c0-0.1,0-0.1,0.2-0.1c0.2,0,0.4,0,0.6-0.1c0.4-0.1,0.5-0.5,0.6-1.1c0.1-0.8,0.1-2.4,0.1-4.3V16.8z"/>
	<path class="st0" d="M191.2,16.8c0-3.1,0-3.6,0-4.3c0-0.7-0.2-1-0.8-1.1c-0.2,0-0.5-0.1-0.7-0.1c-0.1,0-0.2,0-0.2-0.1
		c0-0.1,0.1-0.2,0.3-0.2c0.5,0,1,0,1.4,0l0.8,0c0.1,0,4.1,0,4.5,0c0.4,0,0.7-0.1,0.8-0.1c0.1,0,0.2-0.1,0.3-0.1
		c0.1,0,0.1,0.1,0.1,0.2c0,0.1-0.1,0.4-0.2,0.9c0,0.2-0.1,1.1-0.1,1.3c0,0.1-0.1,0.2-0.1,0.2c-0.1,0-0.2-0.1-0.2-0.3
		c0-0.1,0-0.5-0.1-0.7c-0.1-0.3-0.3-0.6-1.4-0.7c-0.3,0-2.5-0.1-2.7-0.1c-0.1,0-0.1,0.1-0.1,0.2v5.4c0,0.1,0,0.2,0.1,0.2
		c0.3,0,2.7,0,3.1,0c0.5,0,0.7-0.1,0.9-0.3c0.1-0.2,0.2-0.3,0.3-0.3c0.1,0,0.1,0,0.1,0.2s-0.1,0.5-0.2,1.1c0,0.4-0.1,1.1-0.1,1.3
		c0,0.2,0,0.4-0.1,0.4c-0.1,0-0.1-0.1-0.1-0.2c0-0.2,0-0.4-0.1-0.6c-0.1-0.3-0.3-0.6-1-0.7c-0.5-0.1-2.5-0.1-2.8-0.1
		c-0.1,0-0.1,0.1-0.1,0.1v1.7c0,0.7,0,3,0,3.4c0.1,1.4,0.4,1.6,2.3,1.6c0.5,0,1.4,0,1.9-0.2c0.5-0.2,0.7-0.6,0.9-1.4
		c0-0.2,0.1-0.3,0.2-0.3c0.1,0,0.1,0.2,0.1,0.3c0,0.2-0.2,1.5-0.3,1.9c-0.1,0.5-0.3,0.5-1.1,0.5c-1.5,0-2.6,0-3.3-0.1
		c-0.8,0-1.2-0.1-1.5-0.1c0,0-0.4,0-0.8,0c-0.4,0-0.8,0-1.1,0c-0.2,0-0.3,0-0.3-0.2c0-0.1,0-0.1,0.2-0.1c0.2,0,0.4,0,0.6-0.1
		c0.4-0.1,0.5-0.5,0.6-1.1c0.1-0.8,0.1-2.4,0.1-4.3V16.8z"/>
	<path class="st0" d="M212.6,24.1c-1.9-1.7-2.4-4-2.4-5.8c0-1.3,0.5-3.6,2.2-5.4c1.2-1.2,3-2.1,6-2.1c0.8,0,1.9,0.1,2.9,0.2
		c0.7,0.1,1.4,0.3,2,0.3c0.2,0,0.3,0.1,0.3,0.2c0,0.2-0.1,0.4-0.1,1.1c0,0.6,0,1.7-0.1,2c0,0.3-0.1,0.4-0.2,0.4
		c-0.1,0-0.2-0.1-0.2-0.4c0-0.8-0.3-1.6-0.8-2c-0.7-0.6-2.2-1.1-3.9-1.1c-2.6,0-3.8,0.8-4.5,1.4c-1.4,1.4-1.8,3.1-1.8,5.1
		c0,3.8,2.9,7.2,7.1,7.2c1.5,0,2.6-0.2,3.4-1c0.4-0.4,0.7-1.3,0.7-1.7c0-0.2,0.1-0.3,0.2-0.3c0.1,0,0.1,0.1,0.1,0.3
		c0,0.1-0.2,1.9-0.4,2.5c-0.1,0.4-0.2,0.4-0.5,0.6c-0.8,0.3-2.3,0.5-3.5,0.5C216.2,26.3,214.2,25.5,212.6,24.1"/>
	<path class="st0" d="M230,20.3c0,2.9,0.1,4.2,0.4,4.5c0.3,0.3,0.8,0.5,2.4,0.5c1,0,1.9,0,2.4-0.6c0.3-0.3,0.5-0.8,0.5-1.2
		c0-0.2,0.1-0.3,0.2-0.3c0.1,0,0.1,0.1,0.1,0.3c0,0.2-0.1,1.4-0.3,2c-0.1,0.5-0.2,0.5-1.2,0.5c-1.4,0-2.4,0-3.3-0.1
		c-0.8,0-1.4-0.1-2-0.1c-0.1,0-0.4,0-0.8,0c-0.4,0-0.8,0-1.1,0c-0.2,0-0.3,0-0.3-0.2c0-0.1,0-0.1,0.2-0.1c0.2,0,0.4,0,0.6-0.1
		c0.4-0.1,0.5-0.5,0.6-1.1c0.1-0.8,0.1-2.4,0.1-4.3v-3.5c0-3.1,0-3.6,0-4.3c0-0.7-0.2-1-0.8-1.1c-0.2,0-0.5-0.1-0.7-0.1
		c-0.1,0-0.2,0-0.2-0.1c0-0.1,0.1-0.2,0.3-0.2c0.9,0,2.1,0.1,2.2,0.1c0.1,0,1.5-0.1,2.1-0.1c0.2,0,0.3,0,0.3,0.2
		c0,0.1-0.1,0.1-0.2,0.1c-0.1,0-0.4,0-0.6,0.1c-0.6,0.1-0.7,0.4-0.8,1.1c0,0.6,0,1.2,0,4.3V20.3z"/>
	<path class="st0" d="M241.6,20.3c0,1.9,0,3.4,0.1,4.3c0.1,0.6,0.2,1,0.8,1.1c0.3,0,0.7,0.1,0.9,0.1c0.1,0,0.2,0.1,0.2,0.1
		c0,0.1-0.1,0.2-0.3,0.2c-1.1,0-2.3-0.1-2.4-0.1c-0.1,0-1.3,0.1-1.9,0.1c-0.2,0-0.3,0-0.3-0.2c0-0.1,0-0.1,0.2-0.1
		c0.2,0,0.4,0,0.6-0.1c0.4-0.1,0.5-0.5,0.6-1.1c0.1-0.8,0.1-2.4,0.1-4.3v-3.5c0-3.1,0-3.6,0-4.3c0-0.7-0.2-1-0.7-1.1
		c-0.2-0.1-0.5-0.1-0.6-0.1c-0.1,0-0.2,0-0.2-0.1c0-0.1,0.1-0.2,0.3-0.2c0.6,0,1.9,0.1,2,0.1c0.1,0,1.3-0.1,1.9-0.1
		c0.2,0,0.3,0,0.3,0.2c0,0.1-0.1,0.1-0.2,0.1c-0.1,0-0.3,0-0.5,0.1c-0.5,0.1-0.7,0.4-0.7,1.1c0,0.6,0,1.2,0,4.3V20.3z"/>
	<path class="st0" d="M249.2,23.3c0,1.6,0.2,2.1,0.8,2.3c0.4,0.1,0.8,0.1,1,0.1c0.1,0,0.2,0,0.2,0.1c0,0.1-0.1,0.2-0.4,0.2
		c-1.1,0-1.9-0.1-2.1-0.1c-0.2,0-1,0.1-1.9,0.1c-0.2,0-0.3,0-0.3-0.2c0-0.1,0.1-0.1,0.2-0.1c0.2,0,0.5,0,0.8-0.1
		c0.5-0.1,0.6-0.7,0.6-2.5l0-11.3c0-0.8,0.1-1,0.2-1c0.2,0,0.5,0.4,0.7,0.6c0.3,0.3,3.2,3.5,6.3,6.8c1.9,2.1,4.1,4.5,4.7,5.1
		l-0.2-10c0-1.3-0.2-1.7-0.8-1.9c-0.4-0.1-0.8-0.1-1-0.1c-0.1,0-0.2-0.1-0.2-0.1c0-0.1,0.2-0.1,0.4-0.1c0.9,0,1.8,0.1,2,0.1
		c0.2,0,0.9-0.1,1.7-0.1c0.2,0,0.4,0,0.4,0.1c0,0.1-0.1,0.1-0.2,0.1c-0.1,0-0.2,0-0.5,0.1c-0.6,0.1-0.7,0.6-0.7,1.8l0,11.5
		c0,1.3,0,1.4-0.2,1.4c-0.2,0-0.4-0.2-1.4-1.3c-0.2-0.2-3.1-3.1-5.1-5.3c-2.3-2.5-4.5-4.9-5.1-5.6L249.2,23.3z"/>
	<path class="st0" d="M268.9,20.3c0,1.9,0,3.4,0.1,4.3c0.1,0.6,0.2,1,0.8,1.1c0.3,0,0.7,0.1,0.9,0.1c0.1,0,0.2,0.1,0.2,0.1
		c0,0.1-0.1,0.2-0.3,0.2c-1.1,0-2.3-0.1-2.4-0.1c-0.1,0-1.3,0.1-1.9,0.1c-0.2,0-0.3,0-0.3-0.2c0-0.1,0-0.1,0.2-0.1
		c0.2,0,0.4,0,0.6-0.1c0.4-0.1,0.5-0.5,0.6-1.1c0.1-0.8,0.1-2.4,0.1-4.3v-3.5c0-3.1,0-3.6,0-4.3c0-0.7-0.2-1-0.7-1.1
		c-0.2-0.1-0.5-0.1-0.6-0.1c-0.1,0-0.2,0-0.2-0.1c0-0.1,0.1-0.2,0.3-0.2c0.6,0,1.9,0.1,2,0.1c0.1,0,1.3-0.1,1.9-0.1
		c0.2,0,0.3,0,0.3,0.2c0,0.1-0.1,0.1-0.2,0.1c-0.1,0-0.3,0-0.5,0.1c-0.5,0.1-0.7,0.4-0.7,1.1c0,0.6,0,1.2,0,4.3V20.3z"/>
	<path class="st0" d="M275.8,24.1c-1.9-1.7-2.4-4-2.4-5.8c0-1.3,0.5-3.6,2.2-5.4c1.2-1.2,3-2.1,6-2.1c0.8,0,1.9,0.1,2.9,0.2
		c0.7,0.1,1.4,0.3,2,0.3c0.2,0,0.3,0.1,0.3,0.2c0,0.2-0.1,0.4-0.1,1.1c0,0.6,0,1.7-0.1,2c0,0.3-0.1,0.4-0.2,0.4
		c-0.1,0-0.2-0.1-0.2-0.4c0-0.8-0.3-1.6-0.8-2c-0.7-0.6-2.2-1.1-3.9-1.1c-2.6,0-3.8,0.8-4.5,1.4c-1.4,1.4-1.8,3.1-1.8,5.1
		c0,3.8,2.9,7.2,7.1,7.2c1.5,0,2.6-0.2,3.4-1c0.4-0.4,0.7-1.3,0.7-1.7c0-0.2,0.1-0.3,0.2-0.3c0.1,0,0.1,0.1,0.1,0.3
		c0,0.1-0.2,1.9-0.4,2.5c-0.1,0.4-0.2,0.4-0.5,0.6c-0.8,0.3-2.3,0.5-3.5,0.5C279.3,26.3,277.3,25.5,275.8,24.1"/>
</g>
<g>
	<defs>
		<rect id="SVGID_3_" x="301.6" y="2.3" width="32.5" height="32.5"/>
	</defs>
	<clipPath id="SVGID_4_">
		<use xlink:href="#SVGID_3_"  style="overflow:visible;"/>
	</clipPath>
	<path class="st1" d="M309.7,31.2c-5.7-5.7-5.7-15.1,0-20.8c5.7-5.7,15.1-5.7,20.8,0c1.7,1.7,2.9,3.8,3.6,6c-0.5-3.4-2-6.7-4.6-9.3
		c-6.4-6.4-16.7-6.4-23.1,0c-6.4,6.4-6.4,16.7,0,23.1c2.6,2.6,5.9,4.2,9.3,4.6C313.5,34.1,311.4,32.9,309.7,31.2"/>
	<path class="st1" d="M316.8,8.8c-6,3.1-8.4,10.4-5.3,16.4c3.1,6,10.4,8.4,16.4,5.3c1.8-0.9,3.3-2.2,4.4-3.8c-1.2,2.6-3.3,4.8-6,6.2
		c-6.7,3.4-14.8,0.8-18.3-5.9s-0.8-14.8,5.9-18.3c2.7-1.4,5.7-1.8,8.5-1.3C320.5,7.4,318.6,7.8,316.8,8.8"/>
	<path class="st1" d="M330.6,14c2.3,4.9,0.1,10.8-4.8,13.1c-4.9,2.3-10.8,0.1-13.1-4.8c-0.7-1.5-1-3.1-0.9-4.6
		c-0.5,2.2-0.3,4.7,0.8,6.9c2.5,5.5,9,7.9,14.5,5.4c5.5-2.5,7.9-9,5.4-14.5c-1-2.2-2.7-4-4.8-5.1C328.9,11.2,329.9,12.5,330.6,14"/>
</g>
</svg>
